HIERARCHY
ROOT Hips
{
    OFFSET 12.471525192260742 89.52161407470703 -17.837425231933594
    CHANNELS 6 Xposition Yposition Zposition Zrotation Xrotation Yrotation
    JOINT RightUpLeg
    {
        OFFSET -12.471525192260742 0.0 0.0
        CHANNELS 3 Zrotation Xrotation Yrotation
        JOINT RightLeg
        {
            OFFSET 0.0 -44.92804718017578 0.0
            CHANNELS 3 Zrotation Xrotation Yrotation
            JOINT RightFoot
            {
                OFFSET 0.0 -44.59356689453125 0.0
                CHANNELS 3 Zrotation Xrotation Yrotation
                End Site
                {
                    OFFSET 0.0 0.0 17.837425231933594
                }
            }
        }
    }
    JOINT LeftUpLeg
    {
        OFFSET 12.471525192260742 0.0 0.0
        CHANNELS 3 Zrotation Xrotation Yrotation
        JOINT LeftLeg
        {
            OFFSET 0.0 -44.92804718017578 0.0
            CHANNELS 3 Zrotation Xrotation Yrotation
            JOINT LeftFoot
            {
                OFFSET 0.0 -44.59356689453125 0.0
                CHANNELS 3 Zrotation Xrotation Yrotation
                End Site
                {
                    OFFSET 0.0 0.0 17.837425231933594
                }
            }
        }
    }
    JOINT Spine
    {
        OFFSET 0.0 23.986068725585938 0.0
        CHANNELS 3 Zrotation Xrotation Yrotation
        JOINT Spine3
        {
            OFFSET 0.0 24.53854751586914 0.0
            CHANNELS 3 Zrotation Xrotation Yrotation
            JOINT Neck
            {
                OFFSET 0.0 11.394979476928711 0.0
                CHANNELS 3 Zrotation Xrotation Yrotation
                End Site
                {
                    OFFSET 0.0 4.557991981506348 0.0
                }
            }
            JOINT LeftArm
            {
                OFFSET 13.02663803100586 0.0 0.0
                CHANNELS 3 Zrotation Xrotation Yrotation
                JOINT LeftForeArm
                {
                    OFFSET 27.78725814819336 0.0 0.0
                    CHANNELS 3 Zrotation Xrotation Yrotation
                    JOINT LeftHand
                    {
                        OFFSET 19.34823989868164 0.0 0.0
                        CHANNELS 3 Zrotation Xrotation Yrotation
                        End Site
                        {
                            OFFSET 7.7392964363098145 0.0 0.0
                        }
                    }
                }
            }
            JOINT RightArm
            {
                OFFSET -13.02663803100586 0.0 0.0
                CHANNELS 3 Zrotation Xrotation Yrotation
                JOINT RightForeArm
                {
                    OFFSET -27.78725814819336 0.0 0.0
                    CHANNELS 3 Zrotation Xrotation Yrotation
                    JOINT RightHand
                    {
                        OFFSET -19.34823989868164 0.0 0.0
                        CHANNELS 3 Zrotation Xrotation Yrotation
                        End Site
                        {
                            OFFSET -7.7392964363098145 0.0 0.0
                        }
                    }
                }
            }
        }
    }
}
MOTION
Frames: 10
Frame Time: 0.03333333333333333
3.771692718146369e-05 92.67999267578125 -0.0009124174248427153 -13.4575731600652 -3.7339046437602645 -52.58621485585776 2.7150531014751804 20.50463802487276 -0.4696384922215208 2.5525771304707807 11.229914255523774 -0.7397339140367039 -3.180554681463516e-15 3.1805546814635168e-15 -8.5477407064332e-15 -5.448947210039142 13.580521956863866 1.6095389584355855 5.819135009789224 32.56683957382394 0.42567067447133666 1.5902773407317584e-15 3.1805546814635164e-15 -9.939233379573489e-15 2.7414974084255808 23.58030259424185 -0.548354349232188 -7.22557434853729e-08 2.4296179669763275e-07 -1.7141664692059924 -0.6941771404518762 7.765214349376858 -171.73368243145907 114.73957587194687 -36.64274095061091 -171.0522089760046 -1.6474212482356472e-06 2.1080232302442184e-06 25.3472280644447 0.0 0.0 0.0 -116.37646098780571 -38.12060769532719 172.49792097653065 -2.3465677870021017e-06 2.580658109250785e-06 -35.18820916241543 -8.5477407064332e-15 -1.9878466759146976e-15 -1.482796647001225e-31
-8.765023085288703e-05 92.6798095703125 -0.0009138173190876842 -12.23687170203539 -2.371160265955928 -54.981939470698556 2.3647712091741955 19.05574787016133 -0.5868617868835532 2.439162525985515 13.116174581568377 -0.9369821577878322 -3.180554681463516e-15 -7.95138670365879e-16 -5.963540027744092e-16 -7.181458424176929 9.716098313352143 1.3173459816526318 5.3280546301827725 32.53315290715551 1.231868309939886 0.0 0.0 1.5902773407317582e-15 1.2638314820745553 23.515317033463724 -0.27862513112753334 -1.1946284928857925e-07 4.855996071728252e-07 -1.2685264358572907 -0.21544304773862383 5.794843909772895 -168.217074131938 113.87693058409066 -29.721395950032463 -173.04065101643516 1.2002079793063015e-06 2.272837551001533e-06 23.448684761836624 0.0 0.0 6.3611093629270335e-15 -116.40539004526283 -35.21746938242481 172.28593718155815 -5.472997510388504e-07 2.2574461148574184e-06 -38.48683783951448 7.55381736847585e-15 3.9756933518293955e-16 -2.6207568644672815e-32
-9.051246161106974e-05 92.67971801757812 -0.0008807688718661666 -12.21135677328926 -2.6048576266932004 -53.249795050620534 3.3941278892713873 19.992095884140195 -0.7999596306053763 2.1408435398879333 12.167392663558621 -0.913087043292437 -3.1805546814635168e-15 -7.951386703658792e-16 1.5902773407317584e-15 -7.4107613172472755 8.909495669536746 1.322214338728156 6.767243456231355 30.214425052084696 0.7928596372183097 7.95138670365879e-16 -9.655420026984722e-33 -1.3914926731402882e-15 2.030053889573235 23.354385692878104 -0.3877640804303129 6.503569112962588e-07 1.0984319097811488e-06 -0.32087676539040616 0.5157224737175161 6.232182242137702 -170.71343497823753 112.66329756620488 -26.07449534137363 -174.8759431627079 -1.469992416280111e-06 -4.4535447738296394e-06 21.656929504440573 3.1805546814635168e-15 -1.7655625192200634e-31 -6.3611093629270335e-15 -115.75875399888129 -29.61293072627221 172.8101424050363 1.820713718519998e-07 -8.127503008015513e-07 -40.64127155191617 -2.683593012484842e-15 0.0 0.0
-0.0001155794961960055 92.67964172363281 -0.0008635546546429396 -11.891736746626698 -2.25985234602064 -54.339773961267845 3.626276615419182 19.90718645229603 -0.8681652446090198 2.241888241250228 12.398110019610804 -0.9948207982737517 1.5902773407317584e-15 -5.517382872562698e-33 -3.975693351829396e-16 -8.162413023959793 7.296600997199058 1.1858257941829566 6.624921937577499 27.94449184305485 1.1812568538523631 1.5902773407317588e-15 5.517382872562698e-33 3.975693351829397e-16 1.241534300972768 23.12831401811512 -0.06561001292214319 2.2499330103592035e-07 -3.9511825989191436e-07 0.95884210531898 1.181532386430137 6.33170700407659 -171.22043823860835 111.66974831165456 -21.88196168013646 -176.91775864219093 -1.1556777910796029e-07 -1.6834187073526914e-06 20.842468676601243 9.54166404439055e-15 -6.361109362927035e-15 -1.2722218725854067e-14 -115.37732996776208 -25.6619701108235 171.92083403564325 -5.420750165272103e-06 -1.8287346827775404e-07 -42.47965182923304 -4.572047354603805e-15 1.5862475758617757e-32 -3.975693351829396e-16
-6.569271499756724e-05 92.67971801757812 -0.0008497044909745455 -11.446501113339858 -2.180437177434192 -57.15911156597969 3.1874924168860117 20.284432730787483 -1.0780865621560956 1.2331188230354875 12.578204761154884 -0.9018593772863195 -6.48292487526117e-32 -7.951386703658794e-16 -9.342879376799082e-15 -9.159472148165056 6.189267017726318 1.0069724607781005 5.201642296296117 24.86577977658705 1.6683725770325941 -2.3854160110976376e-15 -1.5931443044524792e-31 7.653209702271587e-15 -0.8551884054690482 22.874265856952984 0.36195209190215055 -4.972161781870083e-07 -3.6661089403913693e-07 1.2816826209954648 1.9251707246341505 6.049456016343656 -171.44309281102466 112.23846983776707 -19.674222508463775 -179.36093887345643 -2.4578369173954932e-06 -6.435663728263687e-07 20.455003012788186 -6.3611093629270335e-15 0.0 0.0 -116.44300959478886 -26.05881678955332 170.9872800354927 1.6680928593054763e-06 -2.2219143366655423e-06 -46.92576897012443 -2.584200678689107e-15 2.7829853462805768e-15 -7.95138670365879e-16
-1.6726517060305923e-05 92.67992401123047 -0.0008773964364081621 -11.8417132551418 -1.93744448682385 -56.185260660443966 4.594330293063184 21.32977768854831 -1.3936341062908946 0.5599715475635392 13.574865458962678 -0.9667047212633645 1.73797560485725e-31 2.3854160110976376e-15 -8.348956038841732e-15 -8.276550756239311 6.452245795274502 1.0263730924800982 4.932615600015027 20.3235737417694 1.4014083869941303 -1.9878466759146977e-16 3.857857555424699e-33 -2.2239034686795682e-15 -0.06475173540200471 23.104891755165884 0.32411356281055087 5.0132885557979575e-08 -3.8170269100892276e-07 1.4621343551390813 2.9243932754126667 5.679684239236889 -173.10910043789926 112.05358428447931 -18.021450225883587 178.9274714113899 8.698536929092408e-07 -8.944108559746762e-07 21.2174818109151 0.0 0.0 -6.3611093629270335e-15 -117.22117957009958 -25.521963237224853 170.7054254978984 2.157495776879509e-06 -1.8508583510244074e-06 -51.86382520536478 -3.1805546814635168e-15 0.0 0.0
-0.00012782384874299169 92.67999267578125 -0.0009780102409422398 -11.375916045534824 -1.6923564629064172 -56.62829156858558 4.805700752781707 21.616723658811992 -1.764874457249658 0.08388038920874366 13.842571261998858 -1.0826190295249278 4.4139062980501586e-32 3.1805546814635164e-15 -1.5902773407317582e-15 -8.85051046099416 6.29112022695883 0.9818589017887616 4.329921426466133 15.742297396547741 1.2138662168221088 3.9756933518293955e-16 7.241565020238542e-33 2.0872390097104326e-15 -0.3066983838630477 22.90590429873913 0.1261722994780943 5.494847723936901e-07 -1.2024979349139086e-06 1.9636121423026272 2.9519769195905656 5.425817428336181 -173.98198899033375 112.24736993294792 -16.527610662138663 177.61757851855393 4.961713728915536e-07 -2.6251457981013924e-06 21.781970642293224 0.0 0.0 0.0 -118.30003156747618 -25.251890745110543 170.128864915121 -2.989316024161306e-06 -2.6955319833589285e-06 -54.525232669703854 -7.951386703658791e-16 -3.1805546814635164e-15 -2.2069531490250793e-32
-1.1302654456812888e-05 92.68016052246094 -0.0010065229143947363 -11.638603545199393 -2.51696915483109 -57.851746286519806 4.109196116637703 22.38921507432419 -1.7720970181529725 -0.11558310987658517 14.699757581162329 -1.0590963694066193 4.4139062980501586e-32 3.1805546814635168e-15 -1.5902773407317584e-15 -9.102199305823346 6.469726339615101 0.9734448754244673 2.8243762559275214 12.372843460520862 1.2166687848918716 -3.4483642953516866e-32 -1.590277340731758e-15 -2.4848083448933718e-15 -0.6148556901846585 23.10350468261897 0.028033728824657777 3.3076348389323564e-07 1.3354178902639364e-06 1.9774568419717358 3.105950386676384 5.5120225629858 -173.59312672196583 112.2949485060785 -17.750798430017767 176.7208247926558 7.125127871160284e-07 2.794281628173566e-06 21.1277482580889 -3.1805546814635168e-15 -3.531125038440127e-31 1.2722218725854067e-14 -119.07082995409176 -24.930054315851777 169.8107097276051 -2.041272052792116e-06 -1.1618142859348047e-06 -56.91723065436275 2.3854160110976376e-15 0.0 0.0
4.57663627457805e-05 92.68020629882812 -0.001013685017824173 -11.722609627936528 -2.650147642476774 -57.81025411088518 3.7591908951948074 23.081995219222797 -1.7455622306934855 -0.010812293838533148 16.54427077284076 -1.1600685717580952 -3.1805546814635164e-15 -7.951386703658792e-16 1.5902773407317582e-15 -8.732082046645932 7.1413458159552485 1.007120750440936 2.0473099476302448 9.35698860931867 0.9637612951060195 7.951386703658794e-16 -6.896728590703373e-34 -9.939233379573492e-17 -0.7953369502871748 23.006292506180646 0.039044553932555494 4.533841924162621e-07 4.688727430677087e-08 1.9221581999456288 4.038325951754757 5.499256454269642 -172.59091475948645 112.5097405817958 -15.52856296665774 175.91139804241635 2.6199934297018156e-08 -2.6936926117277445e-07 21.361442422932605 0.0 3.1805546814635176e-15 0.0 -118.79182097922863 -24.75349111804662 170.40650383653693 4.384987139831451e-06 -5.562014268081798e-07 -56.672729188955856 2.3854160110976376e-15 -3.310429723537619e-32 -1.5902773407317584e-15
8.797837654128671e-05 92.68028259277344 -0.0010027022799476981 -12.029240464555649 -2.6053255009772696 -57.82304564812773 3.378333821190592 22.897277374277696 -1.6420016050295885 0.26377529844854153 19.06375755361594 -1.3525263875265543 -3.1805546814635168e-15 7.951386703658791e-16 2.782985346280577e-15 -8.455841878414567 8.332343682190526 1.110522633223499 1.7154302469953129 8.402120572536326 0.8495986586649397 0.0 0.0 2.286023677301903e-15 -0.9321816516470375 23.250192884850264 0.03439399324088725 5.658351343773913e-07 -6.581078092655547e-07 1.5287701951826376 4.581826697434866 5.442778508251846 -171.94174263431208 112.4291418291467 -16.630441202968434 176.6335002507161 2.700850628786955e-06 1.5705228313407969e-06 20.629693282125025 0.0 3.1805546814635164e-15 0.0 -117.92278081491588 -23.47582819488403 171.8254967939213 -1.4127442049226066e-06 -2.2821456728101724e-07 -55.287195595310706 -7.951386703658792e-16 -7.951386703658792e-16 1.5902773407317584e-15
